<?xml version="1.0" standalone="no"?>
<!DOCTYPE svg PUBLIC "-//W3C//DTD SVG 20010904//EN"
 "http://www.w3.org/TR/2001/REC-SVG-20010904/DTD/svg10.dtd">
<svg version="1.0" xmlns="http://www.w3.org/2000/svg"
 width="260.000000pt" height="260.000000pt" viewBox="0 0 260.000000 260.000000"
 preserveAspectRatio="xMidYMid meet">
<metadata>
Created by potrace 1.11, written by Peter Selinger 2001-2013
</metadata>
<g transform="translate(0.000000,260.000000) scale(0.100000,-0.100000)"
fill="#000000" stroke="none">
<path d="M1160 2584 c-154 -20 -301 -65 -440 -134 -354 -178 -600 -501 -686
-900 -26 -119 -26 -381 0 -500 26 -120 61 -221 116 -330 179 -354 501 -600
902 -686 116 -25 380 -25 496 0 523 113 906 495 1018 1016 26 119 26 381 0
500 -56 258 -175 480 -355 661 -180 179 -405 300 -661 355 -73 15 -320 27
-390 18z m740 -504 l0 -140 -140 0 -140 0 0 140 0 140 140 0 140 0 0 -140z
m320 -515 l0 -75 -920 0 -920 0 0 75 0 75 920 0 920 0 0 -75z m0 -530 l0 -75
-920 0 -920 0 0 75 0 75 920 0 920 0 0 -75z m-1300 -520 l0 -135 -135 0 -135
0 0 135 0 135 135 0 135 0 0 -135z"/>
</g>
</svg>
